<svg width="239" height="65" viewBox="0 0 239 65" fill="none" xmlns="http://www.w3.org/2000/svg">
<rect width="239" height="65" rx="8" fill="#120B48"/>
<path d="M27.7017 27.12V39H25.7757V27.12H27.7017ZM30.8846 39V30H32.5946L32.7206 32.34L32.4686 32.088C32.6366 31.572 32.8766 31.146 33.1886 30.81C33.5126 30.462 33.8906 30.21 34.3226 30.054C34.7666 29.898 35.2346 29.82 35.7266 29.82C36.3626 29.82 36.9326 29.946 37.4366 30.198C37.9526 30.438 38.3606 30.804 38.6606 31.296C38.9606 31.788 39.1106 32.412 39.1106 33.168V39H37.1846V33.762C37.1846 32.874 36.9986 32.262 36.6266 31.926C36.2666 31.578 35.8106 31.404 35.2586 31.404C34.8626 31.404 34.4786 31.5 34.1066 31.692C33.7346 31.872 33.4226 32.166 33.1706 32.574C32.9306 32.982 32.8106 33.528 32.8106 34.212V39H30.8846ZM45.4492 39.18C44.5492 39.18 43.7272 39.006 42.9832 38.658C42.2392 38.31 41.6512 37.818 41.2192 37.182L42.5512 36.03C42.8152 36.522 43.1932 36.918 43.6852 37.218C44.1892 37.506 44.7892 37.65 45.4852 37.65C46.0372 37.65 46.4752 37.554 46.7992 37.362C47.1232 37.17 47.2852 36.9 47.2852 36.552C47.2852 36.324 47.2072 36.126 47.0512 35.958C46.9072 35.778 46.6252 35.64 46.2052 35.544L44.3152 35.148C43.3552 34.956 42.6712 34.65 42.2632 34.23C41.8552 33.798 41.6512 33.252 41.6512 32.592C41.6512 32.1 41.7952 31.644 42.0832 31.224C42.3712 30.804 42.7912 30.468 43.3432 30.216C43.9072 29.952 44.5792 29.82 45.3592 29.82C46.2592 29.82 47.0272 29.982 47.6632 30.306C48.2992 30.618 48.7852 31.068 49.1212 31.656L47.7892 32.772C47.5612 32.292 47.2252 31.938 46.7812 31.71C46.3372 31.47 45.8752 31.35 45.3952 31.35C45.0112 31.35 44.6812 31.398 44.4052 31.494C44.1292 31.59 43.9192 31.722 43.7752 31.89C43.6312 32.058 43.5592 32.256 43.5592 32.484C43.5592 32.724 43.6492 32.934 43.8292 33.114C44.0092 33.294 44.3332 33.432 44.8012 33.528L46.8532 33.96C47.7172 34.128 48.3232 34.416 48.6712 34.824C49.0312 35.22 49.2112 35.706 49.2112 36.282C49.2112 36.858 49.0612 37.368 48.7612 37.812C48.4612 38.244 48.0292 38.58 47.4652 38.82C46.9012 39.06 46.2292 39.18 45.4492 39.18ZM54.1845 27.354V36.3C54.1845 36.744 54.2985 37.068 54.5265 37.272C54.7665 37.476 55.0845 37.578 55.4805 37.578C55.8045 37.578 56.0865 37.53 56.3265 37.434C56.5665 37.326 56.7885 37.182 56.9925 37.002L57.4245 38.406C57.1485 38.646 56.8065 38.838 56.3985 38.982C56.0025 39.114 55.5585 39.18 55.0665 39.18C54.5505 39.18 54.0765 39.096 53.6445 38.928C53.2125 38.76 52.8765 38.49 52.6365 38.118C52.3965 37.734 52.2705 37.236 52.2585 36.624V27.894L54.1845 27.354ZM57.2805 30V31.512H50.5305V30H57.2805ZM64.4401 33.222C64.4401 32.622 64.2721 32.16 63.9361 31.836C63.6121 31.5 63.1621 31.332 62.5861 31.332C62.0461 31.332 61.5841 31.458 61.2001 31.71C60.8161 31.962 60.5341 32.37 60.3541 32.934L58.7341 32.25C58.9621 31.518 59.4061 30.93 60.0661 30.486C60.7381 30.042 61.6021 29.82 62.6581 29.82C63.3781 29.82 64.0141 29.94 64.5661 30.18C65.1181 30.408 65.5501 30.756 65.8621 31.224C66.1861 31.692 66.3481 32.292 66.3481 33.024V37.038C66.3481 37.482 66.5701 37.704 67.0141 37.704C67.2301 37.704 67.4401 37.674 67.6441 37.614L67.5361 38.946C67.2601 39.078 66.9121 39.144 66.4921 39.144C66.1081 39.144 65.7601 39.078 65.4481 38.946C65.1481 38.802 64.9081 38.592 64.7281 38.316C64.5601 38.028 64.4761 37.674 64.4761 37.254V37.128L64.8721 37.11C64.7641 37.578 64.5421 37.968 64.2061 38.28C63.8701 38.58 63.4801 38.808 63.0361 38.964C62.5921 39.108 62.1421 39.18 61.6861 39.18C61.1221 39.18 60.6121 39.09 60.1561 38.91C59.7121 38.73 59.3581 38.46 59.0941 38.1C58.8421 37.728 58.7161 37.272 58.7161 36.732C58.7161 36.06 58.9321 35.508 59.3641 35.076C59.8081 34.644 60.4321 34.35 61.2361 34.194L64.7281 33.51L64.7101 34.86L62.1721 35.382C61.6681 35.478 61.2901 35.616 61.0381 35.796C60.7861 35.976 60.6601 36.24 60.6601 36.588C60.6601 36.924 60.7861 37.194 61.0381 37.398C61.3021 37.59 61.6501 37.686 62.0821 37.686C62.3821 37.686 62.6701 37.65 62.9461 37.578C63.2341 37.506 63.4921 37.392 63.7201 37.236C63.9481 37.068 64.1221 36.858 64.2421 36.606C64.3741 36.342 64.4401 36.03 64.4401 35.67V33.222ZM71.3758 25.95V36.48C71.3758 36.924 71.4538 37.23 71.6098 37.398C71.7658 37.566 72.0238 37.65 72.3838 37.65C72.5998 37.65 72.7798 37.638 72.9238 37.614C73.0798 37.578 73.2718 37.518 73.4998 37.434L73.2838 38.874C73.0798 38.97 72.8458 39.042 72.5818 39.09C72.3178 39.15 72.0538 39.18 71.7898 39.18C70.9858 39.18 70.3918 38.976 70.0078 38.568C69.6358 38.148 69.4498 37.506 69.4498 36.642V25.95H71.3758ZM76.9832 25.95V36.48C76.9832 36.924 77.0612 37.23 77.2172 37.398C77.3732 37.566 77.6312 37.65 77.9912 37.65C78.2072 37.65 78.3872 37.638 78.5312 37.614C78.6872 37.578 78.8792 37.518 79.1072 37.434L78.8912 38.874C78.6872 38.97 78.4532 39.042 78.1892 39.09C77.9252 39.15 77.6612 39.18 77.3972 39.18C76.5932 39.18 75.9992 38.976 75.6152 38.568C75.2432 38.148 75.0572 37.506 75.0572 36.642V25.95H76.9832ZM96.0528 27.12V39H94.1088V27.12H96.0528ZM88.2408 27.12V39H86.3148V27.12H88.2408ZM95.0808 32.16V33.816H87.2868V32.16H95.0808ZM103.136 39.18C102.236 39.18 101.444 38.994 100.76 38.622C100.076 38.25 99.5416 37.716 99.1576 37.02C98.7856 36.312 98.5996 35.472 98.5996 34.5C98.5996 33.528 98.7856 32.694 99.1576 31.998C99.5416 31.29 100.07 30.75 100.742 30.378C101.414 30.006 102.176 29.82 103.028 29.82C103.904 29.82 104.648 30 105.26 30.36C105.872 30.72 106.34 31.212 106.664 31.836C106.988 32.46 107.15 33.168 107.15 33.96C107.15 34.176 107.144 34.38 107.132 34.572C107.12 34.764 107.102 34.932 107.078 35.076H99.8416V33.6H106.232L105.278 33.888C105.278 33.072 105.074 32.448 104.666 32.016C104.258 31.572 103.7 31.35 102.992 31.35C102.476 31.35 102.026 31.47 101.642 31.71C101.258 31.95 100.964 32.31 100.76 32.79C100.556 33.258 100.454 33.834 100.454 34.518C100.454 35.19 100.562 35.76 100.778 36.228C100.994 36.696 101.3 37.05 101.696 37.29C102.092 37.53 102.56 37.65 103.1 37.65C103.7 37.65 104.186 37.536 104.558 37.308C104.93 37.08 105.224 36.762 105.44 36.354L106.97 37.074C106.754 37.506 106.46 37.884 106.088 38.208C105.728 38.52 105.296 38.76 104.792 38.928C104.288 39.096 103.736 39.18 103.136 39.18ZM111.454 25.95V36.48C111.454 36.924 111.532 37.23 111.688 37.398C111.844 37.566 112.102 37.65 112.462 37.65C112.678 37.65 112.858 37.638 113.002 37.614C113.158 37.578 113.35 37.518 113.578 37.434L113.362 38.874C113.158 38.97 112.924 39.042 112.66 39.09C112.396 39.15 112.132 39.18 111.868 39.18C111.064 39.18 110.47 38.976 110.086 38.568C109.714 38.148 109.528 37.506 109.528 36.642V25.95H111.454ZM115.189 42.78V30H116.899L117.043 32.52L116.791 32.214C116.935 31.746 117.157 31.332 117.457 30.972C117.757 30.612 118.129 30.33 118.573 30.126C119.029 29.922 119.527 29.82 120.067 29.82C120.799 29.82 121.465 30.006 122.065 30.378C122.665 30.75 123.139 31.284 123.487 31.98C123.835 32.664 124.009 33.498 124.009 34.482C124.009 35.466 123.829 36.312 123.469 37.02C123.121 37.716 122.641 38.25 122.029 38.622C121.429 38.994 120.757 39.18 120.013 39.18C119.245 39.18 118.591 38.982 118.051 38.586C117.511 38.178 117.127 37.662 116.899 37.038L117.115 36.732V42.78H115.189ZM119.599 37.614C120.379 37.614 120.985 37.338 121.417 36.786C121.861 36.234 122.083 35.472 122.083 34.5C122.083 33.528 121.867 32.766 121.435 32.214C121.003 31.65 120.403 31.368 119.635 31.368C119.131 31.368 118.687 31.5 118.303 31.764C117.931 32.016 117.637 32.376 117.421 32.844C117.217 33.3 117.115 33.852 117.115 34.5C117.115 35.136 117.217 35.688 117.421 36.156C117.625 36.624 117.913 36.984 118.285 37.236C118.657 37.488 119.095 37.614 119.599 37.614ZM138.771 27.12V39H136.989V32.124L137.133 28.848H137.115L133.497 39H131.895L128.277 28.848H128.259L128.403 32.124V39H126.621V27.12H129.483L131.877 33.996L132.705 36.822H132.741L133.587 33.996L135.963 27.12H138.771ZM145.868 39.18C144.968 39.18 144.176 38.994 143.492 38.622C142.808 38.25 142.274 37.716 141.89 37.02C141.518 36.312 141.332 35.472 141.332 34.5C141.332 33.528 141.518 32.694 141.89 31.998C142.274 31.29 142.802 30.75 143.474 30.378C144.146 30.006 144.908 29.82 145.76 29.82C146.636 29.82 147.38 30 147.992 30.36C148.604 30.72 149.072 31.212 149.396 31.836C149.72 32.46 149.882 33.168 149.882 33.96C149.882 34.176 149.876 34.38 149.864 34.572C149.852 34.764 149.834 34.932 149.81 35.076H142.574V33.6H148.964L148.01 33.888C148.01 33.072 147.806 32.448 147.398 32.016C146.99 31.572 146.432 31.35 145.724 31.35C145.208 31.35 144.758 31.47 144.374 31.71C143.99 31.95 143.696 32.31 143.492 32.79C143.288 33.258 143.186 33.834 143.186 34.518C143.186 35.19 143.294 35.76 143.51 36.228C143.726 36.696 144.032 37.05 144.428 37.29C144.824 37.53 145.292 37.65 145.832 37.65C146.432 37.65 146.918 37.536 147.29 37.308C147.662 37.08 147.956 36.762 148.172 36.354L149.702 37.074C149.486 37.506 149.192 37.884 148.82 38.208C148.46 38.52 148.028 38.76 147.524 38.928C147.02 39.096 146.468 39.18 145.868 39.18ZM157.516 26.94C158.668 26.94 159.664 27.186 160.504 27.678C161.344 28.17 161.992 28.872 162.448 29.784C162.904 30.696 163.132 31.788 163.132 33.06C163.132 34.332 162.904 35.424 162.448 36.336C161.992 37.248 161.344 37.95 160.504 38.442C159.664 38.934 158.668 39.18 157.516 39.18C156.376 39.18 155.386 38.934 154.546 38.442C153.706 37.95 153.058 37.248 152.602 36.336C152.146 35.424 151.918 34.332 151.918 33.06C151.918 31.788 152.146 30.696 152.602 29.784C153.058 28.872 153.706 28.17 154.546 27.678C155.386 27.186 156.376 26.94 157.516 26.94ZM157.516 28.614C156.772 28.614 156.13 28.788 155.59 29.136C155.062 29.484 154.654 29.988 154.366 30.648C154.078 31.308 153.934 32.112 153.934 33.06C153.934 33.996 154.078 34.8 154.366 35.472C154.654 36.132 155.062 36.636 155.59 36.984C156.13 37.332 156.772 37.506 157.516 37.506C158.272 37.506 158.914 37.332 159.442 36.984C159.982 36.636 160.396 36.132 160.684 35.472C160.972 34.8 161.116 33.996 161.116 33.06C161.116 32.112 160.972 31.308 160.684 30.648C160.396 29.988 159.982 29.484 159.442 29.136C158.914 28.788 158.272 28.614 157.516 28.614ZM168.93 39.18C168.342 39.18 167.796 39.072 167.292 38.856C166.8 38.64 166.404 38.292 166.104 37.812C165.804 37.332 165.654 36.708 165.654 35.94V30H167.58V35.454C167.58 36.27 167.754 36.834 168.102 37.146C168.45 37.446 168.936 37.596 169.56 37.596C169.86 37.596 170.148 37.548 170.424 37.452C170.712 37.344 170.97 37.182 171.198 36.966C171.426 36.738 171.6 36.45 171.72 36.102C171.852 35.754 171.918 35.346 171.918 34.878V30H173.844V39H172.152L172.062 37.542C171.75 38.106 171.33 38.52 170.802 38.784C170.274 39.048 169.65 39.18 168.93 39.18ZM179.481 27.354V36.3C179.481 36.744 179.595 37.068 179.823 37.272C180.063 37.476 180.381 37.578 180.777 37.578C181.101 37.578 181.383 37.53 181.623 37.434C181.863 37.326 182.085 37.182 182.289 37.002L182.721 38.406C182.445 38.646 182.103 38.838 181.695 38.982C181.299 39.114 180.855 39.18 180.363 39.18C179.847 39.18 179.373 39.096 178.941 38.928C178.509 38.76 178.173 38.49 177.933 38.118C177.693 37.734 177.567 37.236 177.555 36.624V27.894L179.481 27.354ZM182.577 30V31.512H175.827V30H182.577Z" fill="white"/>
<path d="M207.025 27.4417L212.084 32.5L207.025 37.5583" stroke="white" stroke-width="1.5" stroke-miterlimit="10" stroke-linecap="round" stroke-linejoin="round"/>
<path d="M197.917 32.5H211.942" stroke="white" stroke-width="1.5" stroke-miterlimit="10" stroke-linecap="round" stroke-linejoin="round"/>
</svg>
